<svg xmlns="http://www.w3.org/2000/svg" width="80.27" height="80.27" viewBox="0 0 80.27 80.27"><defs><style>.a{fill:#fff;}</style></defs><path class="a" d="M53.38,40.138,78.212,15.3a7.02,7.02,0,0,0,0-9.932L74.9,2.063a7.02,7.02,0,0,0-9.932,0L40.138,26.895,15.3,2.058a7.02,7.02,0,0,0-9.932,0L2.058,5.368a7.021,7.021,0,0,0,0,9.932L26.895,40.138,2.063,64.969a7.02,7.02,0,0,0,0,9.932l3.311,3.311a7.02,7.02,0,0,0,9.932,0L40.138,53.38,64.969,78.212a7.021,7.021,0,0,0,9.932,0L78.212,74.9a7.021,7.021,0,0,0,0-9.932Zm0,0"/></svg>